<svg width="13" height="13" viewBox="0 0 13 13" fill="none" xmlns="http://www.w3.org/2000/svg">
<path d="M5.55151 1.58203C5.27808 1.85547 5.30542 2.26562 5.55151 2.53906L8.86011 5.65625H1.01245C0.629639 5.65625 0.356201 5.95703 0.356201 6.3125V7.1875C0.356201 7.57031 0.629639 7.84375 1.01245 7.84375H8.86011L5.55151 10.9883C5.30542 11.2617 5.30542 11.6719 5.55151 11.9453L6.15308 12.5469C6.42651 12.793 6.83667 12.793 7.08276 12.5469L12.4148 7.21484C12.6609 6.96875 12.6609 6.55859 12.4148 6.28516L7.08276 0.980469C6.83667 0.734375 6.42651 0.734375 6.15308 0.980469L5.55151 1.58203Z" fill="#1565D8"/>
</svg>
